<svg width="33" height="31" viewBox="0 0 33 31" fill="none" xmlns="http://www.w3.org/2000/svg">
<path d="M27.8125 30.2349H5.18555C4.90955 30.2349 4.68555 30.0109 4.68555 29.7349V11.1389C4.68555 10.8629 4.90955 10.6389 5.18555 10.6389C5.46155 10.6389 5.68555 10.8629 5.68555 11.1389V29.2349H27.3125V11.1389C27.3125 10.8629 27.5365 10.6389 27.8125 10.6389C28.0885 10.6389 28.3125 10.8629 28.3125 11.1389V29.7349C28.3125 30.0109 28.0895 30.2349 27.8125 30.2349Z" fill="white"/>
<path d="M32.4994 16.1099C32.3764 16.1099 32.2524 16.0649 32.1554 15.9739L16.4984 1.18788L0.843438 15.9729C0.642438 16.1629 0.323438 16.1529 0.136438 15.9529C-0.0525616 15.7519 -0.0445616 15.4359 0.156438 15.2459L16.1544 0.136875C16.3474 -0.0461247 16.6484 -0.0451247 16.8424 0.136875L32.8434 15.2459C33.0434 15.4359 33.0524 15.7519 32.8634 15.9529C32.7644 16.0569 32.6324 16.1099 32.4994 16.1099Z" fill="white"/>
<path d="M20.4903 30.2349H12.5093C12.2333 30.2349 12.0093 30.0109 12.0093 29.7349V18.8989C12.0093 18.6229 12.2333 18.3989 12.5093 18.3989H20.4903C20.7663 18.3989 20.9903 18.6229 20.9903 18.8989V29.7349C20.9903 30.0109 20.7663 30.2349 20.4903 30.2349ZM13.0093 29.2349H19.9903V19.3989H13.0093V29.2349Z" fill="white"/>
</svg>
