<svg width="46" height="60" viewBox="0 0 46 60" fill="none" xmlns="http://www.w3.org/2000/svg">
<path d="M41.014 42.889L31.461 38.113C30.56 37.662 30 36.756 30 35.748V32.367C30.229 32.087 30.47 31.768 30.719 31.416C31.958 29.666 32.951 27.718 33.673 25.617C35.084 24.97 36 23.575 36 22V18C36 17.037 35.64 16.104 35 15.375V10.056C35.056 9.506 35.276 6.232 32.908 3.531C30.854 1.188 27.521 0 23 0C18.479 0 15.146 1.188 13.092 3.53C10.724 6.231 10.944 9.506 11 10.056V15.375C10.36 16.104 10 17.037 10 18V22C10 23.217 10.553 24.352 11.497 25.109C12.413 28.736 14.33 31.469 15 32.346V35.655C15 36.623 14.472 37.511 13.623 37.975L4.702 42.841C1.801 44.424 0 47.458 0 50.762V54C0 58.746 15.045 60 23 60C30.955 60 46 58.746 46 54V50.957C46 47.519 44.089 44.427 41.014 42.889ZM44 54C44 55.357 36.588 58 23 58C9.412 58 2 55.357 2 54V50.762C2 48.191 3.402 45.828 5.659 44.598L14.58 39.732C16.073 38.917 17 37.354 17 35.655V31.636L16.767 31.358C16.743 31.329 14.292 28.364 13.357 24.293L13.266 23.897L12.925 23.677C12.346 23.303 12 22.676 12 22V18C12 17.439 12.238 16.916 12.67 16.525L13 16.228V10L12.991 9.869C12.988 9.842 12.648 7.07 14.596 4.848C16.253 2.958 19.081 2 23 2C26.905 2 29.727 2.951 31.386 4.828C33.333 7.029 33.011 9.845 33.009 9.869L33 16.228L33.33 16.526C33.762 16.916 34 17.439 34 18V22C34 22.873 33.428 23.637 32.578 23.899L32.08 24.052L31.92 24.547C31.251 26.628 30.298 28.55 29.086 30.26C28.789 30.681 28.5 31.054 28.249 31.339L28 31.623V35.748C28 37.518 28.983 39.109 30.566 39.901L40.119 44.677C42.513 45.874 44 48.28 44 50.957V54Z" fill="white"/>
</svg>
