<svg width="51" height="53" viewBox="0 0 51 53" fill="none" xmlns="http://www.w3.org/2000/svg">
<path d="M50.721 51.273L35.862 35.82C39.652 32.019 42 26.779 42 21C42 9.42 32.58 0 21 0C9.42 0 0 9.42 0 21C0 32.58 9.42 42 21 42C26.083 42 30.748 40.183 34.384 37.168L49.279 52.659C49.475 52.864 49.737 52.966 50 52.966C50.25 52.966 50.499 52.873 50.693 52.687C51.091 52.304 51.103 51.671 50.721 51.273ZM21 40C10.523 40 2 31.477 2 21C2 10.523 10.523 2 21 2C31.477 2 40 10.523 40 21C40 31.477 31.476 40 21 40Z" fill="white"/>
</svg>
